<?xml version="1.0" encoding="UTF-8" standalone="no"?>
<!-- Created with Inkscape (http://www.inkscape.org/) -->

<svg
   width="700"
   height="145"
   viewBox="0 0 185.20833 38.364583"
   version="1.1"
   id="svg5"
   inkscape:version="1.2.2 (b0a8486541, 2022-12-01)"
   sodipodi:docname="adacomp.svg"
   inkscape:export-filename="adacomp.webp"
   inkscape:export-xdpi="96"
   inkscape:export-ydpi="96"
   xmlns:inkscape="http://www.inkscape.org/namespaces/inkscape"
   xmlns:sodipodi="http://sodipodi.sourceforge.net/DTD/sodipodi-0.dtd"
   xmlns="http://www.w3.org/2000/svg"
   xmlns:svg="http://www.w3.org/2000/svg">
  <sodipodi:namedview
     id="namedview7"
     pagecolor="#ffffff"
     bordercolor="#000000"
     borderopacity="0.25"
     inkscape:showpageshadow="2"
     inkscape:pageopacity="0.0"
     inkscape:pagecheckerboard="true"
     inkscape:deskcolor="#d1d1d1"
     inkscape:document-units="px"
     showgrid="false"
     inkscape:zoom="0.64693624"
     inkscape:cx="108.97519"
     inkscape:cy="62.602769"
     inkscape:window-width="1444"
     inkscape:window-height="1236"
     inkscape:window-x="1195"
     inkscape:window-y="653"
     inkscape:window-maximized="0"
     inkscape:current-layer="layer1" />
  <defs
     id="defs2" />
  <g
     inkscape:label="Layer 1"
     inkscape:groupmode="layer"
     id="layer1">
    <g
       aria-label="ADAcomp"
       id="text236"
       style="font-size:38.5346px;fill:#bbbbbb;stroke:#bbbbbb;stroke-width:0.867029;stroke-linecap:round;stroke-linejoin:round;paint-order:fill markers stroke" />
    <g
       aria-label="The Americans with Disabilities Act Compliance Inspection Tool"
       id="text1780"
       style="font-weight:bold;font-size:5.64444px;font-family:Merriweather;-inkscape-font-specification:'Merriweather Bold';fill:#a6c8e7;stroke-width:0.79375;stroke-linecap:round;stroke-linejoin:round;paint-order:fill markers stroke;fill-opacity:1"
       transform="matrix(0.97273586,0,0,0.97273586,-12.875929,-63.975033)">
      <path
         id="path516"
         style="font-weight:normal;font-family:'Public Sans';-inkscape-font-specification:'Public Sans';fill:#a6c8e7;fill-opacity:1"
         d="m 178.28572,104.03115 q -0.23706,0 -0.38382,-0.0649 -0.14393,-0.0649 -0.22295,-0.17498 -0.0762,-0.11007 -0.10443,-0.25118 -0.0254,-0.14393 -0.0254,-0.29633 v -3.443108 h 0.51365 v 3.392308 q 0,0.22013 0.0847,0.3302 0.0875,0.11007 0.24272,0.12136 l 0.15804,0.003 v 0.33866 q -0.0649,0.0198 -0.13547,0.031 -0.0705,0.0141 -0.127,0.0141 z m -2.76014,0.0198 q -0.40358,0 -0.70555,-0.17216 -0.29916,-0.17498 -0.46567,-0.51082 -0.16651,-0.33585 -0.16651,-0.82127 0,-0.4572 0.15522,-0.80151 0.15522,-0.34431 0.45438,-0.5334 0.29915,-0.19191 0.73095,-0.19191 0.40358,0 0.69992,0.1778 0.29633,0.17498 0.46002,0.51647 0.16651,0.34149 0.16651,0.83255 0,0.44591 -0.1524,0.78458 -0.1524,0.33867 -0.44873,0.53058 -0.29352,0.18909 -0.72814,0.18909 z m 0.003,-0.41205 q 0.25965,0 0.44027,-0.13264 0.18062,-0.13265 0.27376,-0.381 0.0959,-0.24836 0.0959,-0.58985 0,-0.31326 -0.0847,-0.56162 -0.0818,-0.25118 -0.25965,-0.39793 -0.1778,-0.14676 -0.46567,-0.14676 -0.26528,0 -0.44873,0.13265 -0.18344,0.12982 -0.2794,0.37817 -0.0931,0.24836 -0.0931,0.59549 0,0.30763 0.0818,0.5588 0.0847,0.25118 0.26529,0.39794 0.18345,0.14675 0.47413,0.14675 z m -3.19492,0.41205 q -0.40358,0 -0.70556,-0.17216 -0.29915,-0.17498 -0.46566,-0.51082 -0.16652,-0.33585 -0.16652,-0.82127 0,-0.4572 0.15523,-0.80151 0.15522,-0.34431 0.45437,-0.5334 0.29916,-0.19191 0.73096,-0.19191 0.40358,0 0.69991,0.1778 0.29633,0.17498 0.46002,0.51647 0.16651,0.34149 0.16651,0.83255 0,0.44591 -0.1524,0.78458 -0.1524,0.33867 -0.44873,0.53058 -0.29351,0.18909 -0.72813,0.18909 z m 0.003,-0.41205 q 0.25964,0 0.44027,-0.13264 0.18062,-0.13265 0.27375,-0.381 0.096,-0.24836 0.096,-0.58985 0,-0.31326 -0.0847,-0.56162 -0.0818,-0.25118 -0.25964,-0.39793 -0.1778,-0.14676 -0.46567,-0.14676 -0.26529,0 -0.44873,0.13265 -0.18345,0.12982 -0.2794,0.37817 -0.0931,0.24836 -0.0931,0.59549 0,0.30763 0.0819,0.5588 0.0847,0.25118 0.26529,0.39794 0.18344,0.14675 0.47413,0.14675 z m -3.11381,0.3556 v -3.60115 h -1.31797 v -0.479779 h 3.0875 v 0.479779 h -1.24459 v 3.60115 z m -5.64443,0 v -2.91817 h 0.50518 v 0.42333 q 0.0705,-0.12136 0.19473,-0.2286 0.127,-0.10725 0.3048,-0.17216 0.18062,-0.0649 0.41487,-0.0649 0.27657,0 0.508,0.11007 0.23424,0.11007 0.37253,0.34431 0.14111,0.23142 0.14111,0.59831 v 1.90782 h -0.52211 v -1.85702 q 0,-0.34149 -0.18062,-0.50518 -0.1778,-0.16651 -0.46285,-0.16651 -0.19755,0 -0.36971,0.0649 -0.17215,0.0621 -0.2794,0.19191 -0.10724,0.127 -0.10724,0.32174 v 1.95015 z m -2.02354,0.0564 q -0.40358,0 -0.70556,-0.17216 -0.29915,-0.17498 -0.46566,-0.51082 -0.16651,-0.33585 -0.16651,-0.82127 0,-0.4572 0.15522,-0.80151 0.15522,-0.34431 0.45438,-0.5334 0.29915,-0.19191 0.73095,-0.19191 0.40358,0 0.69991,0.1778 0.29634,0.17498 0.46002,0.51647 0.16651,0.34149 0.16651,0.83255 0,0.44591 -0.15239,0.78458 -0.1524,0.33867 -0.44874,0.53058 -0.29351,0.18909 -0.72813,0.18909 z m 0.003,-0.41205 q 0.25965,0 0.44027,-0.13264 0.18062,-0.13265 0.27375,-0.381 0.096,-0.24836 0.096,-0.58985 0,-0.31326 -0.0847,-0.56162 -0.0818,-0.25118 -0.25964,-0.39793 -0.1778,-0.14676 -0.46567,-0.14676 -0.26529,0 -0.44873,0.13265 -0.18345,0.12982 -0.2794,0.37817 -0.0931,0.24836 -0.0931,0.59549 0,0.30763 0.0818,0.5588 0.0847,0.25118 0.26529,0.39794 0.18344,0.14675 0.47413,0.14675 z m -2.55428,0.3556 v -2.91817 h 0.50518 v 2.91817 z m -0.0141,-3.53624 v -0.541867 h 0.5334 v 0.541867 z m -1.12608,3.55035 q -0.30198,0 -0.46849,-0.0818 -0.16651,-0.0819 -0.23424,-0.24271 -0.0649,-0.16087 -0.0649,-0.39511 v -1.83162 h -0.47414 v -0.381 h 0.48825 l 0.127,-0.84949 h 0.38382 v 0.84666 h 0.65758 v 0.38383 h -0.65758 v 1.81468 q 0,0.15522 0.031,0.2286 0.0339,0.0706 0.11007,0.0903 0.0762,0.0198 0.21449,0.0198 h 0.31891 v 0.34995 q -0.0536,0.0198 -0.16369,0.0339 -0.10724,0.0141 -0.26811,0.0141 z m -2.83279,0.0423 q -0.39511,0 -0.69991,-0.17216 -0.30198,-0.17216 -0.47413,-0.508 -0.16934,-0.33584 -0.16934,-0.82409 0,-0.4572 0.15523,-0.79869 0.15804,-0.34431 0.4572,-0.53622 0.30197,-0.19191 0.73095,-0.19191 0.31327,0 0.56162,0.12136 0.25118,0.11853 0.41205,0.33866 0.16086,0.22014 0.19755,0.51929 h -0.46284 q -0.0254,-0.1524 -0.11853,-0.2794 -0.0903,-0.127 -0.23989,-0.2032 -0.14676,-0.0762 -0.34714,-0.0762 -0.37535,0 -0.61242,0.27094 -0.23424,0.27093 -0.23424,0.82973 0,0.50518 0.21449,0.80997 0.21731,0.30198 0.63782,0.30198 0.20038,0 0.34995,-0.0762 0.14958,-0.079 0.23989,-0.20602 0.0903,-0.12982 0.11571,-0.27658 h 0.45438 q -0.0367,0.29351 -0.20038,0.508 -0.16086,0.21449 -0.41204,0.33302 -0.24836,0.11572 -0.55598,0.11572 z m -3.13832,0 q -0.4064,0 -0.71684,-0.1778 -0.31045,-0.1778 -0.48542,-0.51083 -0.17498,-0.33302 -0.17498,-0.79868 0,-0.46003 0.15804,-0.80716 0.15805,-0.34713 0.4572,-0.54187 0.30198,-0.19473 0.72531,-0.19473 0.41205,0 0.69709,0.1778 0.28505,0.1778 0.4318,0.50236 0.14958,0.32173 0.14958,0.76482 v 0.19191 h -2.09127 q 0,0.27658 0.0903,0.50235 0.0931,0.22296 0.27939,0.3556 0.18627,0.13265 0.47132,0.13265 0.2794,0 0.47977,-0.12982 0.2032,-0.12983 0.25965,-0.37536 h 0.49106 q -0.0508,0.29633 -0.23706,0.49953 -0.18345,0.2032 -0.44309,0.30763 -0.25682,0.1016 -0.54187,0.1016 z m -0.84666,-1.74696 h 1.58608 q 0,-0.25118 -0.0847,-0.45155 -0.0847,-0.2032 -0.25965,-0.31891 -0.17215,-0.11854 -0.43462,-0.11854 -0.27375,0 -0.45438,0.13265 -0.18062,0.12982 -0.26811,0.33584 -0.0875,0.2032 -0.0847,0.42051 z m -3.74792,2.59927 v -3.82693 h 0.51929 l 0.006,0.508 q 0.0508,-0.0903 0.12982,-0.18909 0.0818,-0.0988 0.19756,-0.18345 0.11853,-0.0847 0.27375,-0.13829 0.15805,-0.0536 0.35842,-0.0536 0.34996,0 0.61525,0.16087 0.26811,0.15804 0.41769,0.48542 0.14957,0.32738 0.14957,0.82973 0,0.50236 -0.14675,0.84949 -0.14394,0.34431 -0.41769,0.52493 -0.27376,0.18063 -0.6604,0.18063 -0.19473,0 -0.34713,-0.0564 -0.14958,-0.0536 -0.26247,-0.14111 -0.11007,-0.0903 -0.18627,-0.19191 -0.0734,-0.1016 -0.12135,-0.19473 v 1.43651 z m 1.34338,-1.25871 q 0.36125,0 0.58985,-0.27376 0.2286,-0.27658 0.2286,-0.85795 0,-0.49954 -0.20885,-0.79305 -0.20884,-0.29351 -0.6096,-0.29351 -0.4064,0 -0.61524,0.30198 -0.20885,0.29915 -0.20885,0.78458 0,0.31326 0.0931,0.57008 0.0931,0.25683 0.27657,0.40923 0.18345,0.1524 0.45438,0.1524 z m -3.14959,0.4064 q -0.3048,0 -0.56726,-0.0931 -0.25965,-0.096 -0.4318,-0.29633 -0.17216,-0.2032 -0.21449,-0.51647 h 0.47413 q 0.0367,0.17216 0.14111,0.28787 0.10442,0.11289 0.25682,0.17215 0.15523,0.0564 0.33867,0.0564 0.29633,0 0.47695,-0.11007 0.18063,-0.11006 0.18063,-0.33866 0,-0.16087 -0.096,-0.25683 -0.0931,-0.0988 -0.29351,-0.14393 l -0.60395,-0.14958 q -0.35278,-0.0847 -0.56445,-0.26529 -0.20884,-0.18062 -0.21167,-0.50517 0,-0.25682 0.12418,-0.45156 0.12418,-0.19473 0.36971,-0.30762 0.24836,-0.11289 0.61807,-0.11289 0.47695,0 0.76764,0.21449 0.29069,0.21167 0.3048,0.62371 h -0.46284 q -0.0282,-0.20884 -0.18627,-0.3302 -0.15804,-0.12418 -0.42897,-0.12418 -0.27658,0 -0.45438,0.11289 -0.17498,0.11007 -0.17498,0.34431 0,0.15522 0.12418,0.24554 0.127,0.0875 0.36689,0.14675 l 0.58702,0.14676 q 0.20038,0.0536 0.33302,0.14111 0.13264,0.0875 0.20884,0.19473 0.0762,0.10725 0.10725,0.22578 0.0339,0.11571 0.0339,0.22295 0,0.26811 -0.13265,0.46285 -0.13264,0.19191 -0.38382,0.29915 -0.25118,0.10443 -0.60678,0.10443 z m -4.27849,-0.0564 v -2.91817 h 0.50517 v 0.42333 q 0.0706,-0.12136 0.19474,-0.2286 0.127,-0.10725 0.3048,-0.17216 0.18062,-0.0649 0.41486,-0.0649 0.27658,0 0.508,0.11007 0.23425,0.11007 0.37254,0.34431 0.14111,0.23142 0.14111,0.59831 v 1.90782 h -0.52211 v -1.85702 q 0,-0.34149 -0.18063,-0.50518 -0.1778,-0.16651 -0.46284,-0.16651 -0.19756,0 -0.36971,0.0649 -0.17216,0.0621 -0.2794,0.19191 -0.10725,0.127 -0.10725,0.32174 v 1.95015 z m -1.49014,0 v -4.080929 h 0.52211 v 4.080929 z m -3.40606,0.0564 q -0.4064,0 -0.71685,-0.1778 -0.31044,-0.1778 -0.48542,-0.51083 -0.17498,-0.33302 -0.17498,-0.79868 0,-0.46003 0.15805,-0.80716 0.15804,-0.34713 0.4572,-0.54187 0.30198,-0.19473 0.72531,-0.19473 0.41204,0 0.69709,0.1778 0.28504,0.1778 0.4318,0.50236 0.14957,0.32173 0.14957,0.76482 v 0.19191 h -2.09126 q 0,0.27658 0.0903,0.50235 0.0931,0.22296 0.2794,0.3556 0.18627,0.13265 0.47131,0.13265 0.2794,0 0.47978,-0.12982 0.2032,-0.12983 0.25964,-0.37536 h 0.49107 q -0.0508,0.29633 -0.23707,0.49953 -0.18344,0.2032 -0.44309,0.30763 -0.25682,0.1016 -0.54186,0.1016 z m -0.84667,-1.74696 h 1.58609 q 0,-0.25118 -0.0847,-0.45155 -0.0847,-0.2032 -0.25964,-0.31891 -0.17216,-0.11854 -0.43462,-0.11854 -0.27376,0 -0.45438,0.13265 -0.18062,0.12982 -0.26811,0.33584 -0.0875,0.2032 -0.0847,0.42051 z m -2.26184,1.74696 q -0.39511,0 -0.69991,-0.17216 -0.30198,-0.17216 -0.47413,-0.508 -0.16934,-0.33584 -0.16934,-0.82409 0,-0.4572 0.15523,-0.79869 0.15804,-0.34431 0.4572,-0.53622 0.30197,-0.19191 0.73095,-0.19191 0.31327,0 0.56162,0.12136 0.25118,0.11853 0.41205,0.33866 0.16086,0.22014 0.19755,0.51929 h -0.46284 q -0.0254,-0.1524 -0.11854,-0.2794 -0.0903,-0.127 -0.23988,-0.2032 -0.14676,-0.0762 -0.34714,-0.0762 -0.37535,0 -0.61242,0.27094 -0.23424,0.27093 -0.23424,0.82973 0,0.50518 0.21449,0.80997 0.21731,0.30198 0.63782,0.30198 0.20037,0 0.34995,-0.0762 0.14958,-0.079 0.23989,-0.20602 0.0903,-0.12982 0.11571,-0.27658 h 0.45438 q -0.0367,0.29351 -0.20038,0.508 -0.16086,0.21449 -0.41204,0.33302 -0.24836,0.11572 -0.55598,0.11572 z m -4.43089,-0.0564 v -2.91817 h 0.50518 v 0.42333 q 0.0706,-0.12136 0.19473,-0.2286 0.127,-0.10725 0.3048,-0.17216 0.18063,-0.0649 0.41487,-0.0649 0.27658,0 0.508,0.11007 0.23424,0.11007 0.37253,0.34431 0.14111,0.23142 0.14111,0.59831 v 1.90782 h -0.52211 v -1.85702 q 0,-0.34149 -0.18062,-0.50518 -0.1778,-0.16651 -0.46284,-0.16651 -0.19756,0 -0.36971,0.0649 -0.17216,0.0621 -0.2794,0.19191 -0.10725,0.127 -0.10725,0.32174 v 1.95015 z m -2.30292,0.0564 q -0.28505,0 -0.50236,-0.0988 -0.21449,-0.1016 -0.33866,-0.29069 -0.12136,-0.18909 -0.12136,-0.4572 0,-0.48542 0.33867,-0.72249 0.33866,-0.23707 1.08655,-0.254 l 0.51929,-0.0141 v -0.2286 q 0,-0.26811 -0.16087,-0.42333 -0.16086,-0.15805 -0.49671,-0.15805 -0.25117,0.003 -0.44308,0.11854 -0.19192,0.11571 -0.24554,0.37817 h -0.46002 q 0.0169,-0.28504 0.15804,-0.47977 0.14394,-0.19756 0.40358,-0.29916 0.25965,-0.1016 0.61242,-0.1016 0.381,0 0.63218,0.10725 0.254,0.10724 0.37818,0.31608 0.127,0.20885 0.127,0.51365 v 2.03764 h -0.44591 l -0.0395,-0.54751 q -0.16651,0.34149 -0.42898,0.47413 -0.25964,0.12983 -0.57291,0.12983 z m 0.15522,-0.37536 q 0.14958,0 0.29351,-0.0536 0.14676,-0.0536 0.26529,-0.14394 0.12136,-0.0931 0.19473,-0.20602 0.0734,-0.11571 0.0734,-0.23706 v -0.49954 l -0.4318,0.008 q -0.33584,0.006 -0.5588,0.0677 -0.22295,0.0621 -0.33584,0.19474 -0.11289,0.13264 -0.11289,0.34713 0,0.24553 0.17215,0.38382 0.17216,0.13829 0.44027,0.13829 z m -2.35655,0.31891 v -2.91817 h 0.50518 v 2.91817 z m -0.0141,-3.53624 v -0.541867 h 0.5334 v 0.541867 z m -0.94546,3.57293 q -0.23706,0 -0.38382,-0.0649 -0.14393,-0.0649 -0.22295,-0.17498 -0.0762,-0.11007 -0.10443,-0.25118 -0.0254,-0.14393 -0.0254,-0.29633 v -3.443108 h 0.51365 v 3.392308 q 0,0.22013 0.0847,0.3302 0.0875,0.11007 0.24272,0.12136 l 0.15804,0.003 v 0.33866 q -0.0649,0.0198 -0.13547,0.031 -0.0705,0.0141 -0.127,0.0141 z m -4.09787,0.87207 v -3.82693 h 0.51929 l 0.006,0.508 q 0.0508,-0.0903 0.12982,-0.18909 0.0818,-0.0988 0.19756,-0.18345 0.11853,-0.0847 0.27376,-0.13829 0.15804,-0.0536 0.35842,-0.0536 0.34995,0 0.61524,0.16087 0.26811,0.15804 0.41769,0.48542 0.14958,0.32738 0.14958,0.82973 0,0.50236 -0.14676,0.84949 -0.14393,0.34431 -0.41769,0.52493 -0.27375,0.18063 -0.6604,0.18063 -0.19473,0 -0.34713,-0.0564 -0.14958,-0.0536 -0.26247,-0.14111 -0.11006,-0.0903 -0.18626,-0.19191 -0.0734,-0.1016 -0.12136,-0.19473 v 1.43651 z m 1.34338,-1.25871 q 0.36124,0 0.58984,-0.27376 0.2286,-0.27658 0.2286,-0.85795 0,-0.49954 -0.20884,-0.79305 -0.20885,-0.29351 -0.6096,-0.29351 -0.4064,0 -0.61525,0.30198 -0.20884,0.29915 -0.20884,0.78458 0,0.31326 0.0931,0.57008 0.0931,0.25683 0.27658,0.40923 0.18344,0.1524 0.45438,0.1524 z m -6.22582,0.34995 v -2.91817 h 0.50236 v 0.42333 q 0.12135,-0.19191 0.33302,-0.33585 0.21166,-0.14393 0.55033,-0.14393 0.15805,0 0.32173,0.0536 0.16652,0.0536 0.3048,0.16087 0.13829,0.10724 0.21449,0.26247 0.13547,-0.21449 0.36689,-0.34431 0.23142,-0.13265 0.52211,-0.13265 0.1524,0 0.31891,0.048 0.16651,0.0452 0.30762,0.16369 0.14394,0.11571 0.23425,0.32455 0.0903,0.20602 0.0903,0.53058 v 1.90782 h -0.52493 v -1.85702 q 0,-0.26529 -0.0847,-0.40922 -0.0847,-0.14676 -0.22295,-0.20602 -0.13547,-0.0593 -0.29069,-0.0593 -0.13547,0 -0.28787,0.0536 -0.1524,0.0536 -0.25964,0.18062 -0.10725,0.127 -0.10725,0.34714 v 1.95015 h -0.51929 v -2.00942 q 0,-0.17216 -0.0931,-0.28787 -0.0903,-0.11571 -0.2286,-0.17497 -0.13547,-0.0593 -0.27093,-0.0593 -0.14958,0 -0.30198,0.0593 -0.14958,0.0593 -0.254,0.18909 -0.1016,0.12699 -0.1016,0.33302 v 1.95015 z m -2.02353,0.0564 q -0.40358,0 -0.70556,-0.17216 -0.29915,-0.17498 -0.46566,-0.51082 -0.16652,-0.33585 -0.16652,-0.82127 0,-0.4572 0.15523,-0.80151 0.15522,-0.34431 0.45437,-0.5334 0.29916,-0.19191 0.73096,-0.19191 0.40358,0 0.69991,0.1778 0.29633,0.17498 0.46002,0.51647 0.16651,0.34149 0.16651,0.83255 0,0.44591 -0.1524,0.78458 -0.1524,0.33867 -0.44873,0.53058 -0.29351,0.18909 -0.72813,0.18909 z m 0.003,-0.41205 q 0.25964,0 0.44027,-0.13264 0.18062,-0.13265 0.27375,-0.381 0.096,-0.24836 0.096,-0.58985 0,-0.31326 -0.0847,-0.56162 -0.0818,-0.25118 -0.25964,-0.39793 -0.1778,-0.14676 -0.46567,-0.14676 -0.26529,0 -0.44873,0.13265 -0.18345,0.12982 -0.2794,0.37817 -0.0931,0.24836 -0.0931,0.59549 0,0.30763 0.0818,0.5588 0.0847,0.25118 0.26529,0.39794 0.18344,0.14675 0.47413,0.14675 z m -3.44011,0.41205 q -0.55033,0 -0.9398,-0.25118 -0.38664,-0.25118 -0.59266,-0.72249 -0.2032,-0.47131 -0.2032,-1.13736 0,-0.66322 0.2032,-1.12888 0.2032,-0.46567 0.58984,-0.70838 0.38947,-0.245534 0.94262,-0.245534 0.4318,0 0.76482,0.180624 0.33302,0.1778 0.53622,0.47695 0.2032,0.29916 0.23989,0.65758 h -0.55597 q -0.0452,-0.23989 -0.17216,-0.43462 -0.127,-0.19473 -0.33302,-0.31045 -0.20602,-0.11571 -0.49389,-0.11571 -0.36971,0 -0.62653,0.17498 -0.254,0.17216 -0.38665,0.5334 -0.12982,0.36125 -0.12982,0.92569 0,0.85231 0.29069,1.25306 0.29351,0.39794 0.85231,0.39794 0.28787,0 0.49389,-0.12136 0.20602,-0.12135 0.33302,-0.32455 0.127,-0.2032 0.17216,-0.44027 h 0.55597 q -0.031,0.25965 -0.14111,0.50236 -0.10724,0.23988 -0.29633,0.42897 -0.18909,0.18909 -0.46567,0.29916 -0.27375,0.11007 -0.63782,0.11007 z m -4.10633,-0.0423 q -0.30197,0 -0.46849,-0.0818 -0.16651,-0.0819 -0.23424,-0.24271 -0.0649,-0.16087 -0.0649,-0.39511 v -1.83162 h -0.47413 v -0.381 h 0.48824 l 0.127,-0.84949 h 0.38382 v 0.84666 h 0.65758 v 0.38383 h -0.65758 v 1.81468 q 0,0.15522 0.0311,0.2286 0.0339,0.0706 0.11006,0.0903 0.0762,0.0198 0.21449,0.0198 h 0.31891 v 0.34995 q -0.0536,0.0198 -0.16369,0.0339 -0.10724,0.0141 -0.26811,0.0141 z m -2.8328,0.0423 q -0.39511,0 -0.69991,-0.17216 -0.30198,-0.17216 -0.47413,-0.508 -0.16934,-0.33584 -0.16934,-0.82409 0,-0.4572 0.15523,-0.79869 0.15804,-0.34431 0.4572,-0.53622 0.30197,-0.19191 0.73095,-0.19191 0.31327,0 0.56162,0.12136 0.25118,0.11853 0.41205,0.33866 0.16086,0.22014 0.19755,0.51929 h -0.46284 q -0.0254,-0.1524 -0.11854,-0.2794 -0.0903,-0.127 -0.23988,-0.2032 -0.14676,-0.0762 -0.34714,-0.0762 -0.37535,0 -0.61242,0.27094 -0.23424,0.27093 -0.23424,0.82973 0,0.50518 0.21448,0.80997 0.21732,0.30198 0.63783,0.30198 0.20037,0 0.34995,-0.0762 0.14958,-0.079 0.23989,-0.20602 0.0903,-0.12982 0.11571,-0.27658 h 0.45438 q -0.0367,0.29351 -0.20038,0.508 -0.16087,0.21449 -0.41204,0.33302 -0.24836,0.11572 -0.55598,0.11572 z m -5.303301,-0.0564 1.476022,-4.080929 h 0.589844 l 1.476025,4.080929 h -0.533404 l -0.400755,-1.1176 h -1.673577 l -0.403577,1.1176 z m 1.072444,-1.59738 h 1.391355 l -0.694267,-1.97273 z m -4.033312,1.65383 q -0.3048,0 -0.567267,-0.0931 -0.259644,-0.096 -0.431799,-0.29633 -0.172156,-0.2032 -0.214489,-0.51647 h 0.474133 q 0.03669,0.17216 0.141111,0.28787 0.104422,0.11289 0.256822,0.17215 0.155222,0.0564 0.338666,0.0564 0.296333,0 0.476956,-0.11007 0.180622,-0.11006 0.180622,-0.33866 0,-0.16087 -0.09596,-0.25683 -0.09313,-0.0988 -0.293511,-0.14393 L 93.3307,102.66236 q -0.352777,-0.0847 -0.564444,-0.26529 -0.208844,-0.18062 -0.211666,-0.50517 0,-0.25682 0.124177,-0.45156 0.124178,-0.19473 0.369711,-0.30762 0.248356,-0.11289 0.618066,-0.11289 0.476956,0 0.767644,0.21449 0.290689,0.21167 0.3048,0.62371 h -0.462844 q -0.02822,-0.20884 -0.186267,-0.3302 -0.158044,-0.12418 -0.428977,-0.12418 -0.276578,0 -0.454378,0.11289 -0.174977,0.11007 -0.174977,0.34431 0,0.15522 0.124178,0.24554 0.126999,0.0875 0.366888,0.14675 l 0.587022,0.14676 q 0.200378,0.0536 0.333022,0.14111 0.132644,0.0875 0.208844,0.19473 0.0762,0.10725 0.107245,0.22578 0.03387,0.11571 0.03387,0.22295 0,0.26811 -0.132644,0.46285 -0.132645,0.19191 -0.383822,0.29915 -0.251178,0.10443 -0.606777,0.10443 z m -2.99561,0 q -0.4064,0 -0.716844,-0.1778 -0.310444,-0.1778 -0.485422,-0.51083 -0.174978,-0.33302 -0.174978,-0.79868 0,-0.46003 0.158045,-0.80716 0.158044,-0.34713 0.457199,-0.54187 0.301978,-0.19473 0.725311,-0.19473 0.412044,0 0.697088,0.1778 0.285044,0.1778 0.4318,0.50236 0.149577,0.32173 0.149577,0.76482 v 0.19191 h -2.091265 q 0,0.27658 0.09031,0.50235 0.09313,0.22296 0.2794,0.3556 0.186267,0.13265 0.471311,0.13265 0.2794,0 0.479777,-0.12982 0.2032,-0.12983 0.259645,-0.37536 h 0.491066 q -0.0508,0.29633 -0.237067,0.49953 -0.183444,0.2032 -0.443088,0.30763 -0.256822,0.1016 -0.541865,0.1016 z m -0.846666,-1.74696 h 1.586087 q 0,-0.25118 -0.08467,-0.45155 -0.08467,-0.2032 -0.259645,-0.31891 -0.172155,-0.11854 -0.434621,-0.11854 -0.273756,0 -0.454378,0.13265 -0.180622,0.12982 -0.268111,0.33584 -0.08749,0.2032 -0.08467,0.42051 z m -1.769529,1.69051 v -2.91817 h 0.505177 v 2.91817 z m -0.01411,-3.53624 v -0.541867 h 0.5334 v 0.541867 z m -1.126066,3.55035 q -0.301978,0 -0.468489,-0.0818 -0.166511,-0.0819 -0.234244,-0.24271 -0.06491,-0.16087 -0.06491,-0.39511 v -1.83162 h -0.474133 v -0.381 h 0.488244 l 0.127,-0.84949 h 0.383822 v 0.84666 h 0.657577 v 0.38383 H 86.67468 v 1.81468 q 0,0.15522 0.03104,0.2286 0.03387,0.0706 0.110067,0.0903 0.0762,0.0198 0.214489,0.0198 h 0.318911 v 0.34995 q -0.05362,0.0198 -0.163689,0.0339 -0.107244,0.0141 -0.268111,0.0141 z m -2.452506,-0.0141 v -2.91817 h 0.505178 v 2.91817 z m -0.01411,-3.53624 v -0.541867 h 0.5334 v 0.541867 z m -0.945447,3.57293 q -0.237066,0 -0.383821,-0.0649 -0.143934,-0.0649 -0.222956,-0.17498 -0.0762,-0.11007 -0.104422,-0.25118 -0.0254,-0.14393 -0.0254,-0.29633 v -3.443108 h 0.513644 v 3.392308 q 0,0.22013 0.08467,0.3302 0.08749,0.11007 0.242711,0.12136 l 0.158044,0.003 v 0.33866 q -0.06491,0.0198 -0.135467,0.031 -0.07055,0.0141 -0.127,0.0141 z m -2.156532,-0.0367 v -2.91817 h 0.505178 v 2.91817 z m -0.01411,-3.53624 v -0.541867 h 0.5334 v 0.541867 z m -1.924759,3.59269 q -0.256822,0 -0.434622,-0.0677 -0.174978,-0.0677 -0.287867,-0.17215 -0.112888,-0.10725 -0.174977,-0.21731 -0.06209,-0.11289 -0.09031,-0.19756 L 78.3657,103.9945 H 77.967767 V 99.800682 H 78.4927 v 1.738488 q 0.03669,-0.0734 0.110067,-0.16087 0.0762,-0.0875 0.194733,-0.16933 0.118533,-0.0818 0.2794,-0.13547 0.163689,-0.0536 0.372533,-0.0536 0.547511,0 0.869244,0.381 0.324555,0.381 0.324555,1.12324 0,0.46003 -0.138289,0.80434 -0.138289,0.34149 -0.412044,0.5334 -0.273755,0.18909 -0.682977,0.18909 z m -0.09313,-0.40076 q 0.355599,0 0.578555,-0.27376 0.222955,-0.27657 0.222955,-0.87771 0,-0.51082 -0.208844,-0.79022 -0.206022,-0.28222 -0.603955,-0.28222 -0.290689,0 -0.468489,0.127 -0.174978,0.12418 -0.259644,0.36407 -0.08185,0.23989 -0.08467,0.58137 0,0.61243 0.189089,0.88336 0.191911,0.26811 0.635,0.26811 z m -3.651949,0.40076 q -0.285044,0 -0.502355,-0.0988 -0.214489,-0.1016 -0.338667,-0.29069 -0.121355,-0.18909 -0.121355,-0.4572 0,-0.48542 0.338666,-0.72249 0.338667,-0.23707 1.086555,-0.254 l 0.519288,-0.0141 v -0.2286 q 0,-0.26811 -0.160866,-0.42333 -0.160867,-0.15805 -0.496711,-0.15805 -0.251178,0.003 -0.443089,0.11854 -0.19191,0.11571 -0.245533,0.37817 h -0.460022 q 0.01693,-0.28504 0.158045,-0.47977 0.143933,-0.19756 0.403577,-0.29916 0.259645,-0.1016 0.612422,-0.1016 0.381,0 0.632177,0.10725 0.254,0.10724 0.378178,0.31608 0.127,0.20885 0.127,0.51365 v 2.03764 h -0.445911 l -0.03951,-0.54751 q -0.166511,0.34149 -0.428978,0.47413 -0.259644,0.12983 -0.57291,0.12983 z m 0.155222,-0.37536 q 0.149578,0 0.293511,-0.0536 0.146755,-0.0536 0.265288,-0.14394 0.121356,-0.0931 0.194734,-0.20602 0.07338,-0.11571 0.07338,-0.23706 v -0.49954 l -0.431799,0.008 q -0.335845,0.006 -0.5588,0.0677 -0.222955,0.0621 -0.335844,0.19474 -0.112889,0.13264 -0.112889,0.34713 0,0.24553 0.172156,0.38382 0.172155,0.13829 0.440266,0.13829 z m -2.789592,0.37536 q -0.304799,0 -0.567266,-0.0931 -0.259644,-0.096 -0.431799,-0.29633 -0.172156,-0.2032 -0.214489,-0.51647 h 0.474133 q 0.03669,0.17216 0.141111,0.28787 0.104422,0.11289 0.256822,0.17215 0.155222,0.0564 0.338666,0.0564 0.296333,0 0.476955,-0.11007 0.180623,-0.11006 0.180623,-0.33866 0,-0.16087 -0.09596,-0.25683 -0.09313,-0.0988 -0.293511,-0.14393 l -0.603955,-0.14958 q -0.352777,-0.0847 -0.564444,-0.26529 -0.208844,-0.18062 -0.211666,-0.50517 0,-0.25682 0.124177,-0.45156 0.124178,-0.19473 0.369711,-0.30762 0.248355,-0.11289 0.618066,-0.11289 0.476955,0 0.767644,0.21449 0.290689,0.21167 0.3048,0.62371 h -0.462844 q -0.02822,-0.20884 -0.186267,-0.3302 -0.158044,-0.12418 -0.428977,-0.12418 -0.276578,0 -0.454378,0.11289 -0.174977,0.11007 -0.174977,0.34431 0,0.15522 0.124177,0.24554 0.127,0.0875 0.366889,0.14675 l 0.587022,0.14676 q 0.200377,0.0536 0.333022,0.14111 0.132644,0.0875 0.208844,0.19473 0.0762,0.10725 0.107244,0.22578 0.03387,0.11571 0.03387,0.22295 0,0.26811 -0.132644,0.46285 -0.132645,0.19191 -0.383822,0.29915 -0.251178,0.10443 -0.606778,0.10443 z m -2.43275,-0.0564 v -2.91817 h 0.505178 v 2.91817 z m -0.01411,-3.53624 v -0.541867 h 0.5334 v 0.541867 z m -3.807178,3.53624 v -4.080929 q 0.01976,0 0.118534,0.0028 0.101599,0 0.245533,0 0.143933,-0.0028 0.299155,0 0.155222,0 0.285044,0.0028 0.750711,0.01129 1.216377,0.245539 0.468489,0.23142 0.6858,0.67451 0.220133,0.44309 0.220133,1.08938 0,0.67733 -0.237067,1.13735 -0.234244,0.46002 -0.716844,0.69427 -0.479777,0.23424 -1.222021,0.23424 z m 0.536222,-0.44873 h 0.358422 q 0.505177,0 0.869244,-0.15522 0.364066,-0.15805 0.558799,-0.51083 0.197556,-0.35277 0.197556,-0.94262 0,-0.58984 -0.191911,-0.93415 -0.189089,-0.34431 -0.547511,-0.49107 -0.358422,-0.14958 -0.863599,-0.14958 h -0.381 z m -5.269084,0.44873 v -4.193818 h 0.508 v 1.704618 q 0.07338,-0.12135 0.197555,-0.22577 0.124178,-0.10725 0.301978,-0.17216 0.177799,-0.0677 0.412044,-0.0677 0.285044,0 0.516466,0.10724 0.231422,0.10442 0.366889,0.29916 0.135466,0.19473 0.135466,0.46284 v 2.08562 h -0.522111 v -1.9812 q 0,-0.26246 -0.180622,-0.40357 -0.1778,-0.14394 -0.465666,-0.14394 -0.194733,0 -0.366889,0.0649 -0.172155,0.0621 -0.279399,0.19191 -0.104423,0.127 -0.104423,0.32456 v 1.94733 z m -1.126065,0.0141 q -0.301977,0 -0.468488,-0.0818 -0.166511,-0.0819 -0.234245,-0.24271 -0.06491,-0.16087 -0.06491,-0.39511 v -1.83162 h -0.474133 v -0.381 h 0.488244 l 0.127,-0.84949 h 0.383822 v 0.84666 h 0.657577 v 0.38383 h -0.657577 v 1.81468 q 0,0.15522 0.03104,0.2286 0.03387,0.0706 0.110066,0.0903 0.0762,0.0198 0.214489,0.0198 h 0.318911 v 0.34995 q -0.05362,0.0198 -0.163689,0.0339 -0.107244,0.0141 -0.268111,0.0141 z m -2.45251,-0.0141 v -2.91817 h 0.505178 v 2.91817 z m -0.01411,-3.53624 v -0.541867 h 0.5334 v 0.541867 z m -3.784599,3.53624 -0.90311,-2.91817 h 0.485422 l 0.666044,2.24366 h 0.04516 l 0.657577,-2.24366 h 0.395111 l 0.682978,2.23802 h 0.04798 l 0.637822,-2.23802 h 0.491066 l -0.886177,2.91817 h -0.513644 l -0.663222,-2.15335 -0.634999,2.15335 z m -3.739446,0.0564 q -0.304799,0 -0.567266,-0.0931 -0.259644,-0.096 -0.4318,-0.29633 -0.172155,-0.2032 -0.214488,-0.51647 h 0.474133 q 0.03669,0.17216 0.141111,0.28787 0.104422,0.11289 0.256822,0.17215 0.155222,0.0564 0.338666,0.0564 0.296333,0 0.476955,-0.11007 0.180622,-0.11006 0.180622,-0.33866 0,-0.16087 -0.09595,-0.25683 -0.09313,-0.0988 -0.293511,-0.14393 l -0.603955,-0.14958 q -0.352778,-0.0847 -0.564444,-0.26529 -0.208844,-0.18062 -0.211667,-0.50517 0,-0.25682 0.124178,-0.45156 0.124178,-0.19473 0.369711,-0.30762 0.248355,-0.11289 0.618066,-0.11289 0.476955,0 0.767644,0.21449 0.290689,0.21167 0.3048,0.62371 H 51.53363 q -0.02822,-0.20884 -0.186267,-0.3302 -0.158044,-0.12418 -0.428977,-0.12418 -0.276578,0 -0.454378,0.11289 -0.174977,0.11007 -0.174977,0.34431 0,0.15522 0.124177,0.24554 0.127,0.0875 0.366889,0.14675 l 0.587022,0.14676 q 0.200377,0.0536 0.333022,0.14111 0.132644,0.0875 0.208844,0.19473 0.0762,0.10725 0.107244,0.22578 0.03387,0.11571 0.03387,0.22295 0,0.26811 -0.132644,0.46285 -0.132645,0.19191 -0.383822,0.29915 -0.251178,0.10443 -0.606778,0.10443 z m -4.278488,-0.0564 v -2.91817 h 0.505177 v 0.42333 q 0.07056,-0.12136 0.194734,-0.2286 0.127,-0.10725 0.304799,-0.17216 0.180623,-0.0649 0.414867,-0.0649 0.276577,0 0.507999,0.11007 0.234245,0.11007 0.372533,0.34431 0.141111,0.23142 0.141111,0.59831 v 1.90782 h -0.52211 v -1.85702 q 0,-0.34149 -0.180622,-0.50518 -0.1778,-0.16651 -0.462844,-0.16651 -0.197556,0 -0.369711,0.0649 -0.172156,0.0621 -0.2794,0.19191 -0.107244,0.127 -0.107244,0.32174 v 1.95015 z m -2.302928,0.0564 q -0.285045,0 -0.502355,-0.0988 -0.214489,-0.1016 -0.338667,-0.29069 -0.121355,-0.18909 -0.121355,-0.4572 0,-0.48542 0.338666,-0.72249 0.338666,-0.23707 1.086555,-0.254 l 0.519288,-0.0141 v -0.2286 q 0,-0.26811 -0.160866,-0.42333 -0.160867,-0.15805 -0.496711,-0.15805 -0.251178,0.003 -0.443089,0.11854 -0.191911,0.11571 -0.245533,0.37817 h -0.460022 q 0.01693,-0.28504 0.158045,-0.47977 0.143933,-0.19756 0.403577,-0.29916 0.259644,-0.1016 0.612422,-0.1016 0.381,0 0.632177,0.10725 0.254,0.10724 0.378178,0.31608 0.127,0.20885 0.127,0.51365 v 2.03764 H 45.38683 l -0.03951,-0.54751 q -0.166511,0.34149 -0.428978,0.47413 -0.259644,0.12983 -0.57291,0.12983 z m 0.155222,-0.37536 q 0.149577,0 0.293511,-0.0536 0.146755,-0.0536 0.265288,-0.14394 0.121356,-0.0931 0.194734,-0.20602 0.07338,-0.11571 0.07338,-0.23706 v -0.49954 l -0.431799,0.008 q -0.335845,0.006 -0.5588,0.0677 -0.222955,0.0621 -0.335844,0.19474 -0.112889,0.13264 -0.112889,0.34713 0,0.24553 0.172155,0.38382 0.172156,0.13829 0.440267,0.13829 z m -2.830335,0.37536 q -0.395111,0 -0.69991,-0.17216 -0.301978,-0.17216 -0.474133,-0.508 -0.169333,-0.33584 -0.169333,-0.82409 0,-0.4572 0.155222,-0.79869 0.158044,-0.34431 0.457199,-0.53622 0.301978,-0.19191 0.730955,-0.19191 0.313267,0 0.561622,0.12136 0.251178,0.11853 0.412044,0.33866 0.160867,0.22014 0.197556,0.51929 h -0.462844 q -0.0254,-0.1524 -0.118534,-0.2794 -0.09031,-0.127 -0.239888,-0.2032 -0.146756,-0.0762 -0.347133,-0.0762 -0.375356,0 -0.612422,0.27094 -0.234245,0.27093 -0.234245,0.82973 0,0.50518 0.214489,0.80997 0.217311,0.30198 0.637822,0.30198 0.200378,0 0.349955,-0.0762 0.149578,-0.079 0.239889,-0.20602 0.09031,-0.12982 0.115711,-0.27658 h 0.454377 q -0.03669,0.29351 -0.200377,0.508 -0.160867,0.21449 -0.412044,0.33302 -0.248356,0.11572 -0.555978,0.11572 z m -2.556928,-0.0564 v -2.91817 h 0.505178 v 2.91817 z m -0.01411,-3.53624 v -0.541867 h 0.5334 v 0.541867 z m -2.206981,3.53624 v -2.91817 h 0.496711 v 0.56162 q 0.07338,-0.20885 0.206022,-0.34431 0.132645,-0.13829 0.301978,-0.20603 0.172155,-0.0677 0.3556,-0.0677 0.06491,0 0.126999,0.008 0.06209,0.008 0.09596,0.0282 v 0.50518 q -0.04233,-0.0198 -0.110067,-0.0254 -0.06491,-0.008 -0.110066,-0.008 -0.174978,-0.0113 -0.327378,0.0226 -0.1524,0.031 -0.268111,0.11007 -0.115711,0.079 -0.183444,0.20884 -0.06491,0.127 -0.06491,0.31044 v 1.81469 z m -1.964264,0.0564 q -0.4064,0 -0.716844,-0.1778 -0.310444,-0.1778 -0.485422,-0.51083 -0.174977,-0.33302 -0.174977,-0.79868 0,-0.46003 0.158044,-0.80716 0.158044,-0.34713 0.4572,-0.54187 0.301977,-0.19473 0.72531,-0.19473 0.412044,0 0.697088,0.1778 0.285045,0.1778 0.4318,0.50236 0.149578,0.32173 0.149578,0.76482 v 0.19191 h -2.091265 q 0,0.27658 0.09031,0.50235 0.09313,0.22296 0.2794,0.3556 0.186266,0.13265 0.47131,0.13265 0.2794,0 0.479778,-0.12982 0.2032,-0.12983 0.259644,-0.37536 h 0.491066 q -0.0508,0.29633 -0.237066,0.49953 -0.183444,0.2032 -0.443089,0.30763 -0.256822,0.1016 -0.541865,0.1016 z m -0.846666,-1.74696 h 1.586088 q 0,-0.25118 -0.08467,-0.45155 -0.08467,-0.2032 -0.259644,-0.31891 -0.172156,-0.11854 -0.434622,-0.11854 -0.273755,0 -0.454378,0.13265 -0.180622,0.12982 -0.26811,0.33584 -0.08749,0.2032 -0.08467,0.42051 z m -5.269084,1.69051 v -2.91817 h 0.502355 v 0.42333 q 0.121356,-0.19191 0.333022,-0.33585 0.211667,-0.14393 0.550333,-0.14393 0.158045,0 0.321733,0.0536 0.166511,0.0536 0.3048,0.16087 0.138289,0.10724 0.214489,0.26247 0.135466,-0.21449 0.366888,-0.34431 0.231423,-0.13265 0.522111,-0.13265 0.1524,0 0.318911,0.048 0.166511,0.0452 0.307622,0.16369 0.143933,0.11571 0.234244,0.32455 0.09031,0.20602 0.09031,0.53058 v 1.90782 H 32.35417 v -1.85702 q 0,-0.26529 -0.08467,-0.40922 -0.08467,-0.14676 -0.222956,-0.20602 -0.135466,-0.0593 -0.290688,-0.0593 -0.135467,0 -0.287867,0.0536 -0.1524,0.0536 -0.259644,0.18062 -0.107244,0.127 -0.107244,0.34714 v 1.95015 h -0.519289 v -2.00942 q 0,-0.17216 -0.09313,-0.28787 -0.09031,-0.11571 -0.2286,-0.17497 -0.135466,-0.0593 -0.270933,-0.0593 -0.149578,0 -0.301978,0.0593 -0.149577,0.0593 -0.253999,0.18909 -0.1016,0.12699 -0.1016,0.33302 v 1.95015 z m -4.205103,0 1.476022,-4.080929 h 0.589844 l 1.476021,4.080929 h -0.5334 l -0.400755,-1.1176 h -1.673577 l -0.403577,1.1176 z m 1.072444,-1.59738 h 1.391355 l -0.694267,-1.97273 z m -4.173705,1.65383 q -0.4064,0 -0.716844,-0.1778 -0.310444,-0.1778 -0.485422,-0.51083 -0.174978,-0.33302 -0.174978,-0.79868 0,-0.46003 0.158045,-0.80716 0.158044,-0.34713 0.457199,-0.54187 0.301978,-0.19473 0.725311,-0.19473 0.412044,0 0.697088,0.1778 0.285044,0.1778 0.4318,0.50236 0.149577,0.32173 0.149577,0.76482 v 0.19191 h -2.091265 q 0,0.27658 0.09031,0.50235 0.09313,0.22296 0.2794,0.3556 0.186267,0.13265 0.471311,0.13265 0.2794,0 0.479777,-0.12982 0.2032,-0.12983 0.259645,-0.37536 h 0.491066 q -0.0508,0.29633 -0.237067,0.49953 -0.183444,0.2032 -0.443088,0.30763 -0.256822,0.1016 -0.541866,0.1016 z m -0.846666,-1.74696 h 1.586087 q 0,-0.25118 -0.08467,-0.45155 -0.08467,-0.2032 -0.259645,-0.31891 -0.172155,-0.11854 -0.434621,-0.11854 -0.273756,0 -0.454378,0.13265 -0.180622,0.12982 -0.268111,0.33584 -0.08749,0.2032 -0.08467,0.42051 z m -3.640664,1.69051 v -4.193818 h 0.508 v 1.704618 q 0.07338,-0.12135 0.197555,-0.22577 0.124178,-0.10725 0.301978,-0.17216 0.1778,-0.0677 0.412044,-0.0677 0.285044,0 0.516466,0.10724 0.231422,0.10442 0.366889,0.29916 0.135466,0.19473 0.135466,0.46284 v 2.08562 h -0.52211 v -1.9812 q 0,-0.26246 -0.180622,-0.40357 -0.1778,-0.14394 -0.465667,-0.14394 -0.194733,0 -0.366888,0.0649 -0.172156,0.0621 -0.2794,0.19191 -0.104422,0.127 -0.104422,0.32456 v 1.94733 z m -2.333977,0 v -3.60115 h -1.317976 v -0.479779 h 3.087508 v 0.479779 h -1.244599 v 3.60115 z M 203.6362,83.262849 q 0,3.236906 -1.34871,5.934328 -1.31018,2.697422 -3.89199,4.315875 -2.54329,1.579919 -6.08847,1.579919 -0.77069,0 -1.61845,-0.154139 -0.80923,-0.115603 -1.31018,-0.308276 l 0.1156,3.198371 v 3.506653 l 3.58372,0.46241 v 2.19647 h -11.44477 v -2.19647 l 2.50474,-0.46241 V 76.90464 l -2.50474,-0.693623 V 73.55213 l 6.3582,-0.809227 h 0.0771 l 0.96337,0.770692 v 2.157938 q 0.96336,-1.194573 2.62035,-2.080869 1.65699,-0.886295 3.62225,-0.886295 3.66079,0 6.0114,2.620352 2.35061,2.581819 2.35061,7.938128 z M 193.27039,75.90274 q -1.15603,0 -2.19647,0.50095 -1.04043,0.50095 -1.57992,1.117504 V 91.81753 q 0.26975,0.385346 1.07897,0.655088 0.84776,0.269742 1.84966,0.269742 2.50475,0 3.96907,-2.157937 1.50285,-2.196472 1.50285,-6.859159 0,-3.930529 -1.27165,-5.857259 -1.27164,-1.965265 -3.35251,-1.965265 z M 143.291,92.357014 145.44894,92.010203 V 76.90464 l -2.46622,-0.693623 V 73.55213 l 6.39675,-0.809227 0.46241,0.308277 0.57802,1.271642 v 1.618453 q 1.27164,-1.233107 3.62225,-2.157938 2.38915,-0.963365 4.12321,-0.963365 2.08086,0 3.35251,0.693623 1.31017,0.693623 1.96526,2.157938 1.27164,-1.156038 3.35251,-2.003799 2.08087,-0.847762 4.08467,-0.847762 3.42958,0 4.85536,2.0038 1.42578,2.003799 1.42578,6.550882 v 10.635549 l 2.50475,0.346811 v 2.312076 h -9.98046 v -2.312076 l 2.00379,-0.346811 V 81.528792 q 0,-3.005699 -0.73215,-4.200271 -0.69363,-1.233108 -2.69743,-1.233108 -1.07896,0 -2.235,0.50095 -1.11751,0.462415 -2.0038,1.156038 0.26974,1.464315 0.26974,3.660787 v 10.597015 l 2.38915,0.346811 v 2.312076 h -10.05753 v -2.312076 l 2.1194,-0.346811 V 81.413188 q 0,-2.003799 -0.26974,-3.121302 -0.23121,-1.156038 -0.92483,-1.656988 -0.69363,-0.539485 -2.0038,-0.539485 -1.23311,0 -2.46622,0.578019 -1.19457,0.539485 -2.15793,1.310177 v 14.026594 l 2.27354,0.346811 V 94.66909 H 143.291 Z m -24.23825,-8.362008 q 0,-3.622252 1.42578,-6.165536 1.46431,-2.543283 3.89199,-3.814925 2.42768,-1.310176 5.27924,-1.310176 4.85536,0 7.47572,3.005698 2.65888,2.967165 2.65888,8.092266 0,3.660787 -1.46431,6.242605 -1.42578,2.543284 -3.85346,3.814926 -2.38915,1.233107 -5.27924,1.233107 -4.81683,0 -7.47571,-2.967164 -2.65889,-3.005699 -2.65889,-8.130801 z m 10.44288,8.593216 q 4.35441,0 4.35441,-8.400543 0,-4.392944 -1.04044,-6.666485 -1.04043,-2.312076 -3.39104,-2.312076 -4.47002,0 -4.47002,8.400542 0,4.392945 1.07897,6.705021 1.11751,2.273541 3.46812,2.273541 z M 98.552379,84.072075 q 0,-3.313975 1.310177,-5.895793 1.348714,-2.581818 3.814924,-4.007599 2.50475,-1.464314 5.81873,-1.464314 1.54138,0 2.65888,0.231207 1.11751,0.231208 2.50475,0.616554 l 1.11751,0.308277 -0.23121,6.589416 h -3.35251 l -0.96337,-4.238806 q -0.23121,-1.001899 -2.27354,-1.001899 -2.15794,0 -3.39104,1.888195 -1.19458,1.888195 -1.23311,5.895794 0,4.238806 1.46431,6.512347 1.46432,2.235007 3.892,2.235007 2.92863,0 5.39484,-1.579919 l 0.8863,2.003799 q -1.0019,1.078969 -3.08277,2.003799 -2.04233,0.924831 -4.43148,0.924831 -4.93243,0 -7.43718,-3.044233 -2.466211,-3.044234 -2.466211,-7.976663 z M 80.78794,65.883745 h 5.895794 l 8.901493,26.087923 2.235006,0.385346 V 94.66909 H 86.452527 v -2.312076 l 2.890095,-0.385346 -1.50285,-5.009498 h -9.980461 l -1.502849,5.048033 3.121302,0.346811 v 2.312076 h -9.826323 l -0.03853,-2.312076 2.312076,-0.385346 z m 2.658888,6.512347 -0.693623,-3.005699 -0.732157,3.044233 -3.42958,11.830122 h 8.477612 z m -37.956566,-3.468114 -2.890095,-0.50095 v -2.389145 h 5.626051 q 1.271642,0 3.42958,-0.154138 0.50095,-0.03854 1.502849,-0.07707 1.040434,-0.03853 1.849661,-0.03853 7.090366,0 10.597015,3.545183 3.545183,3.545183 3.545183,10.05753 0,4.547083 -1.772592,8.092266 -1.734057,3.545183 -4.970963,5.548983 -3.236906,1.965264 -7.552782,1.965264 -1.117503,0 -3.506648,-0.154138 -2.235007,-0.154139 -3.044233,-0.154139 h -5.857259 v -2.312076 l 3.044233,-0.385346 z m 5.587517,23.159294 q 1.310176,0.346812 3.660787,0.346812 3.85346,-0.07707 6.049932,-3.082768 2.196472,-3.044234 2.196472,-9.094166 0,-5.741655 -2.157938,-8.862958 -2.157937,-3.159837 -6.70502,-3.159837 -0.963365,0 -1.849661,0.115604 -0.847761,0.115604 -1.194572,0.154138 z M 24.411849,65.883745 h 5.895794 l 8.901493,26.087923 2.235006,0.385346 V 94.66909 H 30.076436 v -2.312076 l 2.890095,-0.385346 -1.50285,-5.009498 H 21.48322 l -1.502849,5.048033 3.121302,0.346811 V 94.66909 H 13.27535 l -0.03853,-2.312076 2.312076,-0.385346 z m 2.658888,6.512347 -0.693623,-3.005699 -0.732157,3.044233 -3.42958,11.830122 h 8.477612 z" />
    </g>
  </g>
</svg>
